<?xml version="1.0" encoding="utf-8"?>
<!-- Generator: Adobe Illustrator 25.4.1, SVG Export Plug-In . SVG Version: 6.00 Build 0)  -->
<svg version="1.1" id="Layer_1" xmlns="http://www.w3.org/2000/svg" xmlns:xlink="http://www.w3.org/1999/xlink" x="0px" y="0px"
	 viewBox="0 0 724.5 491.2" style="enable-background:new 0 0 724.5 491.2;" xml:space="preserve">
<style type="text/css">
	.st0{fill:#0F1A2E;}
</style>
<g id="Layer_2_1_">
	<g id="Header">
		<path class="st0" d="M47.2,190.1c5.1-4.5,11.4-7.3,19-8.3c3.8-0.5,6.6-3.7,6.7-7.5v-13.4c0-0.9-0.4-1.8-1-2.5s-1.6-1-2.5-0.9
			c-7.4,0.3-14.7,1.6-21.7,4c-6.6,2.2-12.6,5.8-17.7,10.4c-5.1,4.7-9,10.4-11.7,16.9c-3,7.2-4.4,15-4.3,22.7v21.3
			c0,2.2-1.8,4.1-4.1,4.1H7.5c-4.2,0-7.5,3.3-7.5,7.5l0,0v9.3c0,4.2,3.3,7.5,7.5,7.5l0,0h2.2c2.2,0,4.1,1.8,4.1,4.1v62.1
			c0,4.2,3.3,7.5,7.5,7.5H31c4.2,0,7.5-3.3,7.5-7.5v-62.1c0-2.2,1.8-4.1,4.1-4.1h13.8c4.2,0,7.5-3.3,7.5-7.5v-9.3
			c0-4.2-3.3-7.5-7.5-7.5H42.7c-2.2,0-4.1-1.8-4.1-4.1v-20.7C38.7,202.4,41.5,195.1,47.2,190.1z M406.3,461.8H394
			c-1.6,0.1-2.9,1.5-2.8,3s1.3,2.7,2.8,2.8h1.8c0.9,0.1,1.6,0.8,1.5,1.8v18.7c-0.1,1.6,1.1,2.9,2.6,2.9c0,0,0,0,0.1,0h0.4
			c1.6,0,2.8-1.3,2.7-2.9c0,0,0,0,0-0.1v-18.7c-0.1-0.9,0.6-1.7,1.5-1.8h1.8c1.6-0.1,2.9-1.5,2.8-3
			C409,463.1,407.8,461.9,406.3,461.8L406.3,461.8z M406.6,282.1h-9.2c-4.3,0-7.8,3.5-7.8,7.8l-0.1,75.2l-0.7-0.5c-3-1.6-6-3-9.2-4
			c-3.9-1.2-7.8-1.8-11.9-1.8c-6.4,0-12.6,1.2-18.5,3.6c-5.5,2.3-10.6,5.7-15,10c-4.2,4.2-7.6,9.1-9.9,14.6
			c-2.5,5.6-3.7,11.6-3.7,17.7s1.2,12.2,3.6,17.8c2.3,5.4,5.7,10.5,10,14.7c4.2,4.2,9.3,7.7,15,10c5.8,2.4,12.1,3.7,18.5,3.6
			c4.2,0.1,8.5-0.5,12.6-1.7c3.1-0.9,6.3-2.1,9.2-3.6c0.8-0.5,1.7-0.9,2.3-1.4v1.3c0,1.8,1.6,3.4,3.4,3.4l0,0h11.4
			c4.3,0,7.8-3.5,7.8-7.8l0.1-151.3C414.4,285.6,410.9,282.1,406.6,282.1L406.6,282.1z M383.4,420.4c-4.1,4.2-9.2,6.2-15.9,6.2
			c-6.6,0-11.8-2-15.9-6.2s-6.3-9.7-6.1-15.5c0-6.4,1.9-11.4,6-15.4s9.2-6,15.9-6s11.8,1.9,15.9,6s6,9.1,6,15.4
			C389.6,410.7,387.4,416.3,383.4,420.4z M309.1,440.5l-13.8-17.3l2.1-4.1c1.8-2.6,3.2-5.4,4.2-8.3l2.4-4.7c1.8-3.6,0.5-8.1-3.1-10
			c0,0-0.1,0-0.1-0.1l-7.8-4c-3.7-1.8-8.2-0.5-10.2,3.2l-3.9,7.5l-13.1-16.2c11.4-7.4,18.7-11.9,18.7-23.9
			c0-16.1-15.1-27.6-32.9-27.6c-17.5,0-32.6,10.5-32.6,26.4c0,6.2,2.5,13,8.7,20.6c1.2,1.4,0.9,3.5-0.5,4.7
			c-0.2,0.2-0.5,0.3-0.7,0.5c-15.5,8-23.4,18.5-23.4,31.3c0,20.8,19.4,31.7,42.3,31.7c13.4,0,22.7-2.8,32.6-9.7
			c0.5-0.4,1.1-0.6,1.7-0.6l6.5,8.1c1.2,1.6,3,2.6,5,2.8c1.2,0.2,7.8,0.2,12.5,0.2c5.4,0,9-6.1,5.7-10.3L309.1,440.5z M252.1,354.2
			c7.5,0,11.5,3.5,11.5,8.8c0,2.9-1.7,5.4-9.3,11.2c-1.7,1-3.8,0.7-5.2-0.6c-6.6-7.1-7.8-9.7-7.8-11.9
			C241.2,357.3,244.9,354.2,252.1,354.2z M262.8,426.9c-6.6,4.4-10.4,4.3-16.6,4.3c-10.5,0-17.9-5.9-17.9-15.2
			c0-6.5,3-11.5,11.8-16.2c1.5-0.7,3.1-0.3,4.2,0.9l19.2,21.6C264.7,423.6,264.4,425.7,262.8,426.9L262.8,426.9z M348.2,326.4h11.4
			c4.3,0,7.8-3.5,7.8-7.8l0,0l0.1-151.3c0-4.3-3.5-7.8-7.8-7.8h-9.2c-4.3,0-7.8,3.5-7.8,7.8l-0.1,75.2c-0.3-0.2-0.5-0.3-0.7-0.5
			c-3-1.6-6-3-9.2-4c-3.9-1.2-7.8-1.8-11.9-1.8c-6.4,0-12.6,1.2-18.5,3.6c-5.6,2.3-10.7,5.6-15,10c-4.2,4.2-7.6,9.1-9.9,14.6
			c-2.5,5.6-3.7,11.6-3.7,17.7s1.2,12.2,3.6,17.8c4.7,11.2,13.7,20,24.9,24.7c5.8,2.4,12.1,3.7,18.5,3.6c4.2,0.1,8.5-0.5,12.6-1.7
			c3.1-0.9,6.3-2.1,9.2-3.6c0.8-0.5,1.7-0.9,2.3-1.3v1.2C344.8,324.9,346.3,326.4,348.2,326.4z M336.5,297.8
			c-4.1,4.2-9.2,6.2-15.9,6.2s-11.8-2-15.9-6.2s-6.3-9.7-6.1-15.5c0-6.4,1.9-11.4,6-15.4c4.1-4.1,9.2-6,15.9-6
			c6.6,0,11.8,1.9,15.9,6s6,9.1,6,15.4C342.7,288,340.6,293.6,336.5,297.8L336.5,297.8z M236.5,325c5.6-2.3,10.7-5.6,15-10
			c4.2-4.2,7.6-9.1,9.9-14.6c4.9-11.4,4.9-24.3,0-35.7c-2.3-5.4-5.7-10.4-10-14.6s-9.4-7.5-15-9.8c-11.8-4.8-25-4.8-36.7,0
			c-5.5,2.3-10.5,5.6-14.8,9.8c-4.2,4.2-7.7,9.1-10,14.6c-4.9,11.4-4.9,24.3,0,35.7c2.4,5.4,5.7,10.4,10,14.6
			c8.8,8.8,20.8,13.7,33.1,13.6C224.4,328.7,230.6,327.4,236.5,325z M208.2,302.1c-2.2-1-4.2-2.4-5.9-4.2c-1.9-1.9-3.5-4.2-4.6-6.8
			c-2.2-5.4-2.2-11.4,0-16.8c1.1-2.6,2.7-5,4.6-7c1.9-1.9,4.2-3.5,6.8-4.6c5.4-2.2,11.4-2.2,16.8,0c5.3,2.2,9.4,6.4,11.6,11.6
			c2.2,5.4,2.2,11.4,0,16.8c-1.1,2.6-2.7,4.9-4.6,6.8c-1.6,1.6-3.3,2.9-5.4,3.8C221.6,305,214.4,305.1,208.2,302.1L208.2,302.1z
			 M148.6,250.2c-4.3-4.2-9.4-7.5-15-9.8c-11.8-4.8-25-4.8-36.7,0c-5.5,2.3-10.5,5.6-14.8,9.8c-4.2,4.2-7.7,9.1-10,14.7
			c-2.4,5.6-4.4,11.6-4.4,17.8c0,6.4,1.9,12.4,4.4,17.9c2.4,5.4,5.7,10.4,9.9,14.6c8.8,8.8,20.8,13.7,33.1,13.6
			c6.4,0,12.6-1.2,18.5-3.6c5.6-2.3,10.7-5.6,15-10c4.2-4.2,7.6-9.1,10-14.6c4.9-11.4,4.9-24.3,0-35.7
			C156.2,259.3,152.8,254.3,148.6,250.2L148.6,250.2z M134.8,291.2c-1.1,2.6-2.7,4.9-4.6,6.8c-1.6,1.6-3.4,2.9-5.4,3.9
			c-6.1,3.1-13.3,3.2-19.5,0.3c-4.7-2.2-8.4-6.2-10.3-11c-2.2-5.4-2.2-11.4,0-16.8c1.1-2.6,2.7-5,4.6-6.9s4.2-3.5,6.8-4.6
			c5.4-2.2,11.4-2.2,16.8,0c5.3,2.2,9.4,6.4,11.6,11.6C137.1,279.8,137.1,285.9,134.8,291.2L134.8,291.2z M429,479.5
			c0-0.1-0.1-0.2-0.1-0.2l-0.8-0.7c1.1-0.6,2-1.7,2.6-2.8c0.8-1.8,1.3-3.8,1.2-5.8c0.1-1.4-0.2-2.9-0.7-4.2c-0.5-1-1.1-1.9-2-2.7
			c-0.8-0.6-1.8-1.1-2.9-1.4s-2.1-0.4-3.1-0.4c-0.8,0-1.8,0.1-3,0.2l-1.2,0.2c-1.5,0.3-2.6,1.6-2.5,3v23.1c-0.1,1.6,1,3,2.7,3
			c1.6,0.1,3-1,3-2.7c0-0.2,0-0.3,0-0.5v-8.3l0.9,0.3l3.7,9.2c0.5,1.1,1.6,1.8,2.8,1.8c0.9,0,1.8-0.5,2.3-1.3c0.6-0.9,0.7-2,0.3-3
			L429,479.5z M425.2,474c-0.5,0.6-1.3,1-2.1,0.9h-1v-7.6h0.4c0.4,0,0.7,0,1.1,0c0.7-0.1,1.4,0.3,1.8,0.8c0.5,0.8,0.6,1.8,0.6,2.7
			C425.9,471.9,425.7,473,425.2,474z M549,461.9c-1.7,0.1-3,1.5-2.9,3.1v6.5c0.1,1-0.7,1.8-1.7,1.9h-2.3c-1-0.1-1.8-0.9-1.7-1.9V465
			c0.1-1.6-1-3-2.7-3c-1.6-0.1-3,1-3,2.7c0,0.2,0,0.3,0,0.5v23c-0.1,1.6,1,3,2.7,3c1.7,0.1,3-1,3-2.7c0-0.2,0-0.3,0-0.5v-6.9
			c-0.1-1,0.7-1.8,1.7-1.9h2.3c1,0.1,1.8,0.9,1.7,1.9v6.8c-0.1,1.6,1,3,2.7,3c1.7,0.1,3-1,3-2.7c0-0.2,0-0.3,0-0.5v-23
			C551.9,463.3,550.6,461.9,549,461.9L549,461.9z M571.8,485.2h-4.1c-0.9-0.1-1.6-0.8-1.6-1.8v-2.6c-0.1-0.9,0.6-1.7,1.6-1.8h3.1
			c1.6-0.1,2.9-1.5,2.8-3c-0.1-1.5-1.3-2.7-2.8-2.8h-3.1c-0.9-0.1-1.6-0.8-1.6-1.8v-2.2c-0.1-0.9,0.6-1.7,1.6-1.8h3.9
			c1.6-0.1,2.8-1.6,2.7-3.1c-0.1-1.4-1.3-2.6-2.7-2.7h-8.5c-1.6,0.1-2.8,1.3-2.7,2.9c0,0,0,0,0,0.1V488c-0.1,1.6,1.1,2.9,2.6,2.9
			c0,0,0,0,0.1,0h8.6c1.6-0.2,2.8-1.6,2.6-3.2C574.3,486.4,573.2,485.3,571.8,485.2z M629.7,377l1-14.3c0.2-1.8-1.3-3.5-3.1-3.7
			c-0.1,0-0.2,0-0.3,0c-3,0.1-5.9,0.6-8.6,1.8c-3.3,1.2-6.5,2.9-9.4,4.8c-3.3,2.2-6.4,4.8-9,7.7c-0.6,0.6-1,1.1-1.6,1.8
			c-0.2-2.7-0.5-5.6-0.7-8.6v-1.9c0-1.8-1.6-3.3-3.4-3.3h-11.9c-4.1,0-7.3,3.2-7.3,7.3v73.5c0,4.1,3.2,7.3,7.3,7.3h10.2
			c4.1,0,7.3-3.2,7.3-7.3v-35.5c-0.2-6.1,2.3-12,6.9-16.1c4.1-3.7,9.2-5.8,15.6-6.4C626.4,383.5,629.3,380.7,629.7,377z
			 M724.1,361.9c-0.6-0.9-1.7-1.6-2.8-1.5h-15.2c-2.2,0-4.2,1.3-5.3,3.2c-2.1,4.3-18.4,40.3-19,41.6c-0.8-1.7-20.5-41.7-20.5-41.7
			c-1-1.9-3-3.2-5.3-3.2h-0.5h-16.2c-1.8,0-3.4,1.6-3.4,3.4c0,0.6,0.1,1,0.4,1.6l31.3,64.3c0.6,1.4,0.7,2.9,0.3,4.2
			c-10.2,28-27.8,30.4-35.2,31.4c-3.8,0.6-6.6,3.7-6.7,7.5v13.4c0,0.9,0.4,1.8,1,2.5c0.6,0.6,1.6,1,2.5,0.9c7.4-0.3,14.7-1.6,21.7-4
			c6.6-2.2,12.6-5.8,17.7-10.4c5-4.6,13.1-4.8,55.1-110.1C724.7,364,724.7,362.8,724.1,361.9L724.1,361.9z M597.3,461.8
			c-1.6,0.1-2.9,1.4-2.8,3l0,0v11.5c-0.1-0.2-0.1-0.3-0.2-0.5l-6.6-12.7c-0.5-0.9-1.5-1.5-2.5-1.5c-1.6,0-2.8,1.4-2.8,3l0,0V488
			c-0.3,1.5,0.8,3,2.3,3.1c1.5,0.2,3-0.8,3.1-2.3c0-0.3,0-0.6,0-0.8v-11.4c0-0.1,0-0.3,0-0.4l0.1,0.3c0.1,0.2,0.1,0.3,0.2,0.5
			l6.5,12.6c0.5,0.9,1.5,1.6,2.5,1.6c1.6-0.1,2.9-1.4,2.8-3l0,0v-23.5C600,463.3,598.8,461.9,597.3,461.8z M537.7,343.6
			c2.8,2.6,6.4,4.1,10.1,4.1s7.2-1.5,9.9-4.1c3-2.7,4.7-6.6,4.6-10.6c0-8-6.6-14.6-14.6-14.6s-14.6,6.6-14.6,14.6l0,0
			C533,337,534.7,340.9,537.7,343.6L537.7,343.6z M552.7,361h-10.3c-4,0-7.2,3.2-7.2,7.2l0,0v73.6c0,4,3.2,7.2,7.2,7.2l0,0h10.3
			c4,0,7.2-3.2,7.2-7.2v-73.7C559.9,364.3,556.7,361,552.7,361z M485.7,461.8h-0.4c-1.3,0-2.4,1-2.6,2.4l-1.8,12.9l-2.8-13.1
			c-0.2-1.4-1.6-2.3-3-2.1c-1.1,0.2-1.9,1-2.1,2.1l-2.9,13l-2-12.9c-0.2-1.3-1.3-2.3-2.6-2.3h-0.8c-0.7,0-1.5,0.4-1.9,0.9
			c-0.6,0.6-0.7,1.6-0.6,2.5l4.7,23.7c0.2,1.3,1.3,2.2,2.6,2.2h0.2c1.2,0,2.3-0.9,2.5-2.1l3-13.6c0,0,0,0,0-0.1l0,0l3.1,13.7
			c0.3,1.2,1.3,2.1,2.6,2.1c1.3-0.1,2.3-1,2.6-2.2l4.8-23.7c0.2-0.8,0-1.8-0.6-2.5C487.1,462.2,486.5,461.9,485.7,461.8z M452,485.2
			h-4.1c-0.9-0.1-1.6-0.8-1.5-1.8v-2.6c-0.1-0.9,0.6-1.7,1.5-1.8h3.1c1.6-0.1,2.9-1.5,2.8-3s-1.3-2.7-2.8-2.8h-3.1
			c-0.9-0.1-1.6-0.8-1.5-1.8v-2.2c-0.1-0.9,0.6-1.7,1.5-1.8h3.9c1.6-0.1,2.8-1.6,2.7-3.1c-0.1-1.4-1.3-2.6-2.7-2.7h-8.5
			c-1.6,0-2.8,1.3-2.7,2.9c0,0,0,0,0,0.1V488c-0.1,1.6,1.1,2.9,2.6,2.9c0,0,0,0,0.1,0h8.6c1.6-0.1,2.9-1.5,2.8-3
			C454.6,486.5,453.4,485.3,452,485.2L452,485.2z M496.7,445.6c0,1.8,1.6,3.4,3.4,3.4l0,0h12.6c3.7,0,6.6-3,6.6-6.6v-74.7
			c0-3.7-3-6.6-6.6-6.6h-8.6c-3.4,0.1-6.3,2.8-6.6,6.2c0,0,0,0,0,0.1c-1.1-0.7-2.3-1.5-3.7-2.3c-3-1.6-6-3-9.2-4.1
			c-3.9-1.3-7.8-1.9-11.9-1.9c-6.4-0.1-12.6,1.2-18.5,3.7c-5.5,2.4-10.6,5.8-15,10.1c-4.2,4.2-7.6,9.2-9.9,14.7
			c-4.9,11.3-4.9,24.1,0,35.4c2.4,5.4,5.7,10.4,9.9,14.6c4.3,4.2,9.4,7.6,15,9.9c5.8,2.4,12.1,3.7,18.5,3.6
			c4.2,0.1,8.5-0.5,12.6-1.7c3.1-0.9,6.2-2.1,9.1-3.6c0.8-0.5,1.7-0.9,2.4-1.4L496.7,445.6z M488.5,420.4c-4.1,4.2-9.2,6.2-15.9,6.2
			c-6.6,0-11.8-2-15.9-6.2s-6.3-9.7-6.1-15.5c0-6.4,1.9-11.4,6-15.4s9.2-6,15.9-6c6.6,0,11.8,1.9,15.9,6s6,9.1,6,15.4
			C494.7,410.7,492.6,416.3,488.5,420.4L488.5,420.4z M499,461.9c-1.7,0.1-3,1.5-2.9,3.1v23c-0.1,1.6,1,3,2.7,3c1.7,0.1,3-1,3-2.7
			c0-0.2,0-0.3,0-0.5v-23C501.9,463.3,500.6,461.9,499,461.9L499,461.9z M571.1,101.7c13.8-0.6,27.9-3.6,39.7-11.1
			c10.5-6.6,19-16,25.9-26.3c6.7-10.4,12.1-21.8,15.7-33.7c4.6-14.9-4.7-28.4-20-30c-52.2-5.2-100,28.6-126.9,70.9
			c-6.8-1.6-13.5-4-19.9-7c-11.7-5.7-21.8-14.2-33.2-20.5c-15.6-8.6-33.2-11.9-50.8-13.7c-18.3-1.8-36.8-1.6-55.2-0.2
			c-16,1.1-31.9,3.4-47.5,6.8c-4.6,1-9.2,2.3-13.7,4.1c-10.4,4.2-19.4,11.4-28.8,17.4c-9.7,6.1-20,10.1-30.8,12.8
			c-5.1-8-10.8-15.7-17.1-22.8c-17.3-19.8-39.9-35-65.1-42.7C124.7,0,76.3-9.2,77.5,23.4c0.3,6.3,3.2,12.6,5.5,18.3
			c2.5,6.2,5.4,12.2,8.8,18c6.3,10.9,14.7,20.4,24.7,28.1c22.7,16.8,51.4,14.6,77.9,11.5c6.6-0.7,13.2-1.6,19.9-2.6
			c9.1,18.4,15.5,38.1,18.7,58.4l-18,1.2c-2.2,0.2-3.9,2.1-3.8,4.3c0.1,0.7,0.3,1.4,0.6,1.9l17.7,26.5l17.7,26.5
			c1.2,1.8,3.8,2.3,5.6,1.1c0.6-0.4,1-0.9,1.4-1.6l14.1-28.6l14.1-28.6c1-2,0.2-4.4-1.8-5.4c-0.6-0.3-1.4-0.5-2-0.4l-23.2,1.5
			c-1.8-13.5-5-26.7-9.3-39.6c-2.7-7.6-5.7-15-9.2-22.3c13.7-4.1,25.9-10.5,37.8-18.4c5.7-3.8,11.4-7.5,17.5-10.9l0.3-0.2
			c1.2-0.4,2.3-0.8,3.5-1.2c6.3-1.8,12.6-3.3,19-4.4c17.5-3,35.3-4.8,53-5c19.6-0.4,38.6,0.5,57.1,5.5c10.2,2.9,16.6,6.4,26.1,12.6
			c12.2,8,23.9,15.5,37.9,20.2c1.7,0.6,3.3,1,5,1.5c-8.3,17.5-14.2,35.9-17.5,55c-2,11.8-3,23.8-4.2,35.6c-3.2,31.9-6.2,63.7-9,95.6
			c-0.4,3.8-0.7,7.7-1,11.4c-0.5,6.1,5.6,11.4,11.4,11.4c6.6,0,10.9-5.3,11.4-11.4c2-24.7,4.5-49.5,6.9-74.2
			c1.4-14.5,2.8-29,4.3-43.5c0.5-4.4,0.9-8.9,1.5-13.3c0-0.6,0.1-1.3,0.3-1.9c-1.4,5.6,0.3-1.3,0.5-2.7c1-6.2,2.4-12.4,4-18.5
			c3.5-13.4,8.5-26.3,14.8-38.6c4.5,0.7,9,1.3,13.7,1.9C544,100.4,557.6,102.2,571.1,101.7L571.1,101.7z M184.8,77.7
			c-22.1,2.3-45.1,2.8-61.9-14.1c-7.5-7.6-12.9-16.8-17.4-26.4c-0.8-1.8-6.5-13.4-5.4-14.5c-0.6,0.7,5.4,0.4,5.9,0.4
			c23.1-0.2,45.1,7.8,63.9,20.9c12.3,8.7,22.9,19.5,31.6,31.8C195.9,76.5,190.3,77.1,184.8,77.7z M529.9,75.8
			c13.4-18.7,30.7-34.2,51.9-43.7c10-4.5,20.5-7.4,31.4-8.5c2.7-0.3,5.4-0.5,8.1-0.5c1.7,0,7.8-0.8,9,0.2c0.1,0.1,0.3-0.1,0.5-0.2
			c-0.6,1.3-1,2.7-1.4,4.1c-6.6,18.9-18.1,39.6-37.5,47.6c-10.8,4.4-22.7,4.6-34.2,3.9C548.4,78.1,539.1,77,529.9,75.8z
			 M524.6,461.8h-12.4c-1.6,0.2-2.8,1.6-2.6,3.2c0.1,1.4,1.2,2.5,2.6,2.6h1.8c0.9,0.1,1.6,0.8,1.5,1.8v18.7
			c-0.1,1.6,1.1,2.9,2.6,2.9c0,0,0,0,0.1,0h0.4c1.6,0,2.8-1.3,2.7-2.9c0,0,0,0,0-0.1v-18.7c-0.1-0.9,0.6-1.7,1.5-1.8h1.8
			c1.6-0.2,2.8-1.6,2.6-3.2C527.1,463.1,526,462,524.6,461.8L524.6,461.8z"/>
	</g>
</g>
</svg>
